# xmcd
#
# Track frame offsets:
#	150
#	3033
#	20658
#	41097
#	58572
#	73914
#	93372
#	109248
#	130371
#	149817
#	168663
#	184191
#	199752
#	217356
#	229251
#
# Disc length: 3178 seconds
#
# Revision: 0
# Processed by: cddbd v1.5.2PL0 Copyright (c) Steve Scherf et al.
# Submitted via: EasyCDDAExtractor 10.0.5.1
#
DISCID=eb0c680f
DTITLE=SQWEEZ ANIMAL
DYEAR=1900
DGENRE=
TTITLE0=Suffocated Intro
TTITLE1=ครึ่งสายตา
TTITLE2=จะรักดีไหม
TTITLE3=ฉันไม่เหงา
TTITLE4=รักไม่หลอก
TTITLE5=ไม่มองกลับหลัง
TTITLE6=ทำไงดี
TTITLE7=นางในฝัน
TTITLE8=อีกสักครั้ง
TTITLE9=อาจยังไม่สาย
TTITLE10=Materialistic
TTITLE11=Let's cry
TTITLE12=เริ่มใหม่
TTITLE13=อาย
TTITLE14=Suffocated Outtro
EXTD=
EXTT0=
EXTT1=
EXTT2=
EXTT3=
EXTT4=
EXTT5=
EXTT6=
EXTT7=
EXTT8=
EXTT9=
EXTT10=
EXTT11=
EXTT12=
EXTT13=
EXTT14=
PLAYORDER=
